<svg width="77" height="124" viewBox="0 0 77 124" fill="none" xmlns="http://www.w3.org/2000/svg">
<rect x="0.5" y="0.5" width="76" height="123" rx="4.5" stroke="#9747FF" stroke-dasharray="10 5"/>
<g filter="url(#filter0_d_1_1006)">
<path fill-rule="evenodd" clip-rule="evenodd" d="M26.1256 97.9821C25.5833 97.4398 25.5697 96.5738 26.0954 96.0481L48.9404 73.2031C49.466 72.6775 50.3321 72.691 50.8744 73.2334C51.4167 73.7757 51.4302 74.6417 50.9046 75.1673L28.0596 98.0123C27.5339 98.538 26.668 98.5244 26.1256 97.9821Z" fill="black"/>
</g>
<g filter="url(#filter1_d_1_1006)">
<path d="M26.1256 72.9821C26.668 72.4397 27.5339 72.4262 28.0596 72.9519L50.9046 95.7969C51.4302 96.3225 51.4168 97.1884 50.8744 97.7308C50.332 98.2732 49.466 98.2867 48.9404 97.761L26.0954 74.9161C25.5697 74.3904 25.5832 73.5245 26.1256 72.9821Z" fill="black"/>
</g>
<g filter="url(#filter2_d_1_1006)">
<path fill-rule="evenodd" clip-rule="evenodd" d="M22.3462 26C21.6027 26 21 26.6218 21 27.3889C21 28.1559 21.6027 28.7778 22.3462 28.7778H54.6538C55.3972 28.7778 56 28.1559 56 27.3889C56 26.6218 55.3972 26 54.6538 26H22.3462ZM21 38.5C21 37.7329 21.6027 37.1111 22.3462 37.1111H54.6538C55.3972 37.1111 56 37.7329 56 38.5C56 39.2671 55.3972 39.8889 54.6538 39.8889H22.3462C21.6027 39.8889 21 39.2671 21 38.5ZM21 49.6111C21 48.8442 21.6027 48.2222 22.3462 48.2222H54.6538C55.3972 48.2222 56 48.8442 56 49.6111C56 50.3781 55.3972 51 54.6538 51H22.3462C21.6027 51 21 50.3781 21 49.6111Z" fill="black"/>
</g>
<defs>
<filter id="filter0_d_1_1006" x="21.7098" y="72.8176" width="33.5803" height="33.5803" filterUnits="userSpaceOnUse" color-interpolation-filters="sRGB">
<feFlood flood-opacity="0" result="BackgroundImageFix"/>
<feColorMatrix in="SourceAlpha" type="matrix" values="0 0 0 0 0 0 0 0 0 0 0 0 0 0 0 0 0 0 127 0" result="hardAlpha"/>
<feOffset dy="4"/>
<feGaussianBlur stdDeviation="2"/>
<feComposite in2="hardAlpha" operator="out"/>
<feColorMatrix type="matrix" values="0 0 0 0 0 0 0 0 0 0 0 0 0 0 0 0 0 0 0.25 0"/>
<feBlend mode="normal" in2="BackgroundImageFix" result="effect1_dropShadow_1_1006"/>
<feBlend mode="normal" in="SourceGraphic" in2="effect1_dropShadow_1_1006" result="shape"/>
</filter>
<filter id="filter1_d_1_1006" x="21.7098" y="72.5663" width="33.5803" height="33.5803" filterUnits="userSpaceOnUse" color-interpolation-filters="sRGB">
<feFlood flood-opacity="0" result="BackgroundImageFix"/>
<feColorMatrix in="SourceAlpha" type="matrix" values="0 0 0 0 0 0 0 0 0 0 0 0 0 0 0 0 0 0 127 0" result="hardAlpha"/>
<feOffset dy="4"/>
<feGaussianBlur stdDeviation="2"/>
<feComposite in2="hardAlpha" operator="out"/>
<feColorMatrix type="matrix" values="0 0 0 0 0 0 0 0 0 0 0 0 0 0 0 0 0 0 0.25 0"/>
<feBlend mode="normal" in2="BackgroundImageFix" result="effect1_dropShadow_1_1006"/>
<feBlend mode="normal" in="SourceGraphic" in2="effect1_dropShadow_1_1006" result="shape"/>
</filter>
<filter id="filter2_d_1_1006" x="17" y="26" width="43" height="33" filterUnits="userSpaceOnUse" color-interpolation-filters="sRGB">
<feFlood flood-opacity="0" result="BackgroundImageFix"/>
<feColorMatrix in="SourceAlpha" type="matrix" values="0 0 0 0 0 0 0 0 0 0 0 0 0 0 0 0 0 0 127 0" result="hardAlpha"/>
<feOffset dy="4"/>
<feGaussianBlur stdDeviation="2"/>
<feComposite in2="hardAlpha" operator="out"/>
<feColorMatrix type="matrix" values="0 0 0 0 0 0 0 0 0 0 0 0 0 0 0 0 0 0 0.25 0"/>
<feBlend mode="normal" in2="BackgroundImageFix" result="effect1_dropShadow_1_1006"/>
<feBlend mode="normal" in="SourceGraphic" in2="effect1_dropShadow_1_1006" result="shape"/>
</filter>
</defs>
</svg>
